<svg width="451" height="451" viewBox="0 0 451 451" fill="none" xmlns="http://www.w3.org/2000/svg">
<rect width="451" height="451" fill="#E5E5E5"/>
<rect width="451" height="451" fill="#EDD622"/>
<path d="M192.648 424.5H284.648L231.648 278.75L175.898 432H167.898L231.648 256.75L295.398 432H192.648V424.5ZM433.123 400C428.623 411 422.29 419.5 414.123 425.5C405.956 431.5 393.706 434.5 377.373 434.5C356.873 434.5 342.04 428.25 332.873 415.75C323.706 403.083 319.123 383.417 319.123 356.75V332.25C319.123 305.583 323.706 286 332.873 273.5C342.04 260.833 356.873 254.5 377.373 254.5C393.706 254.5 405.956 257.5 414.123 263.5C422.29 269.5 428.623 278 433.123 289L426.373 292.25C422.54 282.583 417.123 275.167 410.123 270C403.123 264.667 392.206 262 377.373 262C369.206 262 362.206 263.083 356.373 265.25C350.54 267.25 345.29 270.75 340.623 275.75C335.956 280.75 332.456 288 330.123 297.5C327.79 306.833 326.623 318.417 326.623 332.25V356.75C326.623 370.583 327.79 382.25 330.123 391.75C332.456 401.083 335.956 408.25 340.623 413.25C345.29 418.25 350.54 421.833 356.373 424C362.206 426 369.206 427 377.373 427C392.206 427 403.123 424.417 410.123 419.25C417.123 413.917 422.54 406.417 426.373 396.75L433.123 400Z" fill="black"/>
<path d="M192.648 424.5V420.5H188.648V424.5H192.648ZM284.648 424.5V428.5H290.359L288.408 423.133L284.648 424.5ZM231.648 278.75L235.408 277.383L231.649 267.047L227.889 277.383L231.648 278.75ZM175.898 432V436H178.7L179.657 433.367L175.898 432ZM167.898 432L164.139 430.633L162.187 436H167.898V432ZM231.648 256.75L235.407 255.383L231.648 245.049L227.889 255.383L231.648 256.75ZM295.398 432V436H301.11L299.157 430.633L295.398 432ZM192.648 432H188.648V436H192.648V432ZM192.648 428.5H284.648V420.5H192.648V428.5ZM288.408 423.133L235.408 277.383L227.889 280.117L280.889 425.867L288.408 423.133ZM227.889 277.383L172.139 430.633L179.657 433.367L235.407 280.117L227.889 277.383ZM175.898 428H167.898V436H175.898V428ZM171.657 433.367L235.407 258.117L227.889 255.383L164.139 430.633L171.657 433.367ZM227.889 258.117L291.639 433.367L299.157 430.633L235.407 255.383L227.889 258.117ZM295.398 428H192.648V436H295.398V428ZM196.648 432V424.5H188.648V432H196.648ZM433.123 400L436.825 401.515L438.251 398.029L434.858 396.396L433.123 400ZM414.123 425.5L411.755 422.276L411.755 422.276L414.123 425.5ZM332.873 415.75L329.633 418.095L329.64 418.105L329.647 418.115L332.873 415.75ZM332.873 273.5L336.099 275.865L336.106 275.855L336.114 275.845L332.873 273.5ZM414.123 263.5L411.755 266.724L411.755 266.724L414.123 263.5ZM433.123 289L434.858 292.604L438.251 290.971L436.825 287.485L433.123 289ZM426.373 292.25L422.655 293.725L424.238 297.717L428.108 295.854L426.373 292.25ZM410.123 270L407.699 273.182L407.723 273.2L407.748 273.218L410.123 270ZM356.373 265.25L357.67 269.034L357.718 269.017L357.766 269L356.373 265.25ZM340.623 275.75L343.547 278.479L343.547 278.479L340.623 275.75ZM330.123 297.5L334.004 298.47L334.006 298.462L334.008 298.454L330.123 297.5ZM330.123 391.75L326.239 392.704L326.24 392.712L326.242 392.72L330.123 391.75ZM340.623 413.25L337.699 415.979L337.699 415.979L340.623 413.25ZM356.373 424L354.98 427.75L355.028 427.767L355.076 427.784L356.373 424ZM410.123 419.25L412.498 422.468L412.523 422.45L412.547 422.432L410.123 419.25ZM426.373 396.75L428.108 393.146L424.238 391.283L422.655 395.275L426.373 396.75ZM429.421 398.485C425.151 408.923 419.232 416.783 411.755 422.276L416.491 428.724C425.347 422.217 432.095 413.077 436.825 401.515L429.421 398.485ZM411.755 422.276C404.581 427.547 393.334 430.5 377.373 430.5V438.5C394.078 438.5 407.332 435.453 416.491 428.724L411.755 422.276ZM377.373 430.5C357.698 430.5 344.281 424.542 336.099 413.385L329.647 418.115C339.799 431.958 356.048 438.5 377.373 438.5V430.5ZM336.114 413.405C327.681 401.753 323.123 383.108 323.123 356.75H315.123C315.123 383.726 319.732 404.414 329.633 418.095L336.114 413.405ZM323.123 356.75V332.25H315.123V356.75H323.123ZM323.123 332.25C323.123 305.885 327.684 287.34 336.099 275.865L329.647 271.135C319.729 284.66 315.123 305.281 315.123 332.25H323.123ZM336.114 275.845C344.303 264.528 357.718 258.5 377.373 258.5V250.5C356.028 250.5 339.776 257.138 329.633 271.155L336.114 275.845ZM377.373 258.5C393.334 258.5 404.581 261.453 411.755 266.724L416.491 260.276C407.332 253.547 394.078 250.5 377.373 250.5V258.5ZM411.755 266.724C419.232 272.217 425.151 280.077 429.421 290.515L436.825 287.485C432.095 275.923 425.347 266.783 416.491 260.276L411.755 266.724ZM431.388 285.396L424.638 288.646L428.108 295.854L434.858 292.604L431.388 285.396ZM430.091 290.775C426.037 280.55 420.209 272.473 412.498 266.782L407.748 273.218C414.037 277.861 419.043 284.616 422.655 293.725L430.091 290.775ZM412.547 266.818C404.515 260.699 392.537 258 377.373 258V266C391.875 266 401.731 268.635 407.699 273.182L412.547 266.818ZM377.373 258C368.871 258 361.374 259.125 354.98 261.5L357.766 269C363.038 267.041 369.541 266 377.373 266V258ZM355.076 261.466C348.556 263.701 342.763 267.594 337.699 273.021L343.547 278.479C347.816 273.906 352.523 270.799 357.67 269.034L355.076 261.466ZM337.699 273.021C332.408 278.69 328.669 286.65 326.239 296.546L334.008 298.454C336.244 289.35 339.505 282.81 343.547 278.479L337.699 273.021ZM326.242 296.53C323.804 306.285 322.623 318.219 322.623 332.25H330.623C330.623 318.614 331.776 307.381 334.004 298.47L326.242 296.53ZM322.623 332.25V356.75H330.623V332.25H322.623ZM322.623 356.75C322.623 370.784 323.804 382.793 326.239 392.704L334.008 390.796C331.775 381.707 330.623 370.383 330.623 356.75H322.623ZM326.242 392.72C328.677 402.459 332.419 410.323 337.699 415.979L343.547 410.521C339.494 406.177 336.236 399.708 334.004 390.78L326.242 392.72ZM337.699 415.979C342.747 421.388 348.508 425.346 354.98 427.75L357.766 420.25C352.571 418.321 347.832 415.112 343.547 410.521L337.699 415.979ZM355.076 427.784C361.437 429.965 368.899 431 377.373 431V423C369.513 423 362.976 422.035 357.67 420.216L355.076 427.784ZM377.373 431C392.519 431 404.475 428.391 412.498 422.468L407.748 416.032C401.771 420.443 391.894 423 377.373 423V431ZM412.547 422.432C420.223 416.583 426.039 408.443 430.091 398.225L422.655 395.275C419.04 404.39 414.023 411.25 407.699 416.068L412.547 422.432ZM424.638 400.354L431.388 403.604L434.858 396.396L428.108 393.146L424.638 400.354Z" fill="black"/>
</svg>
